<svg xmlns="http://www.w3.org/2000/svg" xmlns:xlink="http://www.w3.org/1999/xlink" width="500" zoomAndPan="magnify" viewBox="0 0 375 374.999991" height="500" preserveAspectRatio="xMidYMid meet" version="1.0"><defs><clipPath id="a3bc51e8ed"><path d="M 61 31.515625 L 223 31.515625 L 223 138 L 61 138 Z M 61 31.515625 " clip-rule="nonzero"/></clipPath><clipPath id="03879f04c8"><path d="M 158 231 L 320 231 L 320 337.515625 L 158 337.515625 Z M 158 231 " clip-rule="nonzero"/></clipPath><clipPath id="8dd929eac7"><path d="M 237 55 L 343.5 55 L 343.5 217 L 237 217 Z M 237 55 " clip-rule="nonzero"/></clipPath><clipPath id="43ef0756ab"><path d="M 37.5 152 L 138 152 L 138 312 L 37.5 312 Z M 37.5 152 " clip-rule="nonzero"/></clipPath></defs><rect x="-37.5" width="450" fill="#ffffff" y="-37.499999" height="449.999989" fill-opacity="1"/><rect x="-37.5" width="450" fill="#000000" y="-37.499999" height="449.999989" fill-opacity="1"/><g clip-path="url(#a3bc51e8ed)"><path fill="#261fb3" d="M 61.773438 137.023438 C 80.796875 85.464844 130.480469 49.464844 185.398438 47.445312 L 190.488281 47.261719 L 190.488281 31.515625 L 222.140625 57.894531 L 190.488281 84.269531 L 190.488281 68.28125 L 184.964844 68.546875 C 141.050781 70.667969 102.578125 96.921875 84.546875 137.023438 L 61.773438 137.023438 " fill-opacity="1" fill-rule="nonzero"/></g><g clip-path="url(#03879f04c8)"><path fill="#261fb3" d="M 158.835938 311.113281 L 190.488281 284.738281 L 190.488281 300.730469 L 196.011719 300.460938 C 239.925781 298.339844 278.398438 272.085938 296.429688 231.984375 L 319.222656 231.984375 C 300.179688 283.542969 250.496094 319.542969 195.578125 321.5625 L 190.488281 321.75 L 190.488281 337.492188 C 190.488281 337.492188 158.835938 311.113281 158.835938 311.113281 " fill-opacity="1" fill-rule="nonzero"/></g><g clip-path="url(#8dd929eac7)"><path fill="#261fb3" d="M 290.722656 184.503906 L 306.714844 184.503906 L 306.445312 178.980469 C 304.324219 135.066406 278.070312 96.59375 237.96875 78.5625 L 237.96875 55.769531 C 289.527344 74.851562 325.527344 124.539062 327.546875 179.414062 L 327.734375 184.503906 L 343.476562 184.503906 L 317.097656 216.15625 C 317.078125 216.15625 290.722656 184.503906 290.722656 184.503906 " fill-opacity="1" fill-rule="nonzero"/></g><g clip-path="url(#43ef0756ab)"><path fill="#261fb3" d="M 137.734375 311.136719 C 88.421875 290.550781 55.347656 242.84375 53.429688 189.59375 L 53.242188 184.503906 L 37.5 184.503906 L 63.878906 152.851562 L 90.253906 184.503906 L 74.261719 184.503906 L 74.53125 190.027344 C 76.53125 231.488281 100.742188 268.992188 137.753906 287.910156 L 137.734375 311.136719 " fill-opacity="1" fill-rule="nonzero"/></g><path fill="#261fb3" d="M 211.589844 184.503906 C 211.589844 196.167969 202.152344 205.605469 190.488281 205.605469 C 178.824219 205.605469 169.386719 196.167969 169.386719 184.503906 C 169.386719 172.839844 178.824219 163.402344 190.488281 163.402344 C 202.152344 163.402344 211.589844 172.839844 211.589844 184.503906 " fill-opacity="1" fill-rule="nonzero"/><path fill="#261fb3" d="M 190.488281 216.15625 C 173.035156 216.15625 158.835938 201.957031 158.835938 184.503906 C 158.835938 167.050781 173.035156 152.851562 190.488281 152.851562 C 207.941406 152.851562 222.140625 167.050781 222.140625 184.503906 C 222.140625 201.957031 207.941406 216.15625 190.488281 216.15625 Z M 259.070312 195.054688 L 259.070312 173.953125 L 241.554688 171.480469 C 240.296875 166.515625 238.339844 161.878906 235.804688 157.652344 L 246.457031 143.453125 L 231.539062 128.535156 L 217.339844 139.1875 C 213.113281 136.652344 208.476562 134.695312 203.511719 133.4375 L 201.039062 115.921875 L 179.9375 115.921875 L 177.464844 133.4375 C 172.5 134.695312 167.863281 136.652344 163.636719 139.1875 L 149.4375 128.535156 L 134.519531 143.453125 L 145.171875 157.652344 C 142.636719 161.878906 140.679688 166.515625 139.421875 171.480469 L 121.90625 173.953125 L 121.90625 195.054688 L 139.421875 197.527344 C 140.679688 202.496094 142.636719 207.132812 145.171875 211.355469 L 134.519531 225.554688 L 149.4375 240.472656 L 163.636719 229.820312 C 167.863281 232.355469 172.5 234.3125 177.464844 235.570312 L 179.9375 253.085938 L 201.039062 253.085938 L 203.511719 235.570312 C 208.476562 234.3125 213.113281 232.355469 217.339844 229.820312 L 231.539062 240.472656 L 246.457031 225.554688 L 235.804688 211.355469 C 238.339844 207.132812 240.296875 202.496094 241.554688 197.527344 L 259.070312 195.054688 " fill-opacity="1" fill-rule="nonzero"/></svg>